<?xml version="1.0" standalone="no"?><!DOCTYPE svg PUBLIC "-//W3C//DTD SVG 1.1//EN" "http://www.w3.org/Graphics/SVG/1.1/DTD/svg11.dtd"><svg t="1604512167411" class="icon" viewBox="0 0 1024 1024" version="1.1" xmlns="http://www.w3.org/2000/svg" p-id="1326" xmlns:xlink="http://www.w3.org/1999/xlink" width="200" height="200"><defs><style type="text/css"></style></defs><path d="M393.208224 817.16458C372.734906 730.990522 232.818387 641.745467 232.818387 467.303489 232.818387 279.181613 356.588902 183.46885 512 186.167605c155.411098 2.745286 279.181613 93.014007 279.181613 281.135884 0 142.243032-93.060538 227.858726-138.520611 301.376551-1.861211-0.465303-259.359718 48.810252-259.452778 48.48454z m56.348155 205.291546a23.265134 23.265134 0 1 1-14.703565-44.110695l139.590807-46.530269a23.265134 23.265134 0 1 1 14.703565 44.110695l-139.590807 46.530269z m0-93.060538a23.265134 23.265134 0 1 1-14.703565-44.110695l139.590807-46.530268a23.265134 23.265134 0 1 1 14.703565 44.110694l-139.590807 46.530269zM488.734866 46.530269a23.265134 23.265134 0 1 1 46.530268 0v73.564355a23.265134 23.265134 0 1 1-46.530268 0V46.530269zM123.286135 156.062521a23.265134 23.265134 0 1 1 32.94343-32.94343l52.020841 52.020841a23.265134 23.265134 0 1 1-32.943431 32.94343L123.286135 156.062521z m703.444603-32.94343a23.265134 23.265134 0 0 1 32.94343 32.94343l-52.02084 52.020841a23.265134 23.265134 0 0 1-32.943431-32.94343l52.020841-52.020841zM46.697312 535.098091a23.265134 23.265134 0 1 1 0-46.530269h73.564355a23.265134 23.265134 0 1 1 0 46.530269H46.697312z m857.041021 0a23.265134 23.265134 0 1 1 0-46.530269H977.302688a23.265134 23.265134 0 1 1 0 46.530269h-73.564355z" fill="#7E57C2" p-id="1327"></path></svg>