<?xml version="1.0" standalone="no"?><!DOCTYPE svg PUBLIC "-//W3C//DTD SVG 1.1//EN" "http://www.w3.org/Graphics/SVG/1.1/DTD/svg11.dtd"><svg t="1603953729890" class="icon" viewBox="0 0 1068 1024" version="1.1" xmlns="http://www.w3.org/2000/svg" p-id="2088" xmlns:xlink="http://www.w3.org/1999/xlink" width="208.59375" height="200"><defs><style type="text/css"></style></defs><path d="M448.667826 890.434783l88.153044 88.153043a22.26087 22.26087 0 0 1-31.499131 31.47687l-125.907478-125.929739a22.26087 22.26087 0 0 1 20.48-37.487305l0.734609-0.734609H690.086957c184.409043 0 333.913043-149.504 333.913043-333.913043 0-107.386435-50.688-202.930087-129.469217-264.013913l-0.022261-0.111304a22.238609 22.238609 0 1 1 27.625739-34.771479l0.044522-0.044521C1011.222261 282.290087 1068.521739 390.477913 1068.521739 512c0 209.007304-169.427478 378.434783-378.434782 378.434783H448.667826z m261.787826-711.746783A339.099826 339.099826 0 0 0 690.086957 178.086957H378.434783C194.025739 178.086957 44.521739 327.590957 44.521739 512c0 125.261913 68.964174 234.406957 171.008 291.550609l0.022261 0.089043a22.26087 22.26087 0 1 1-22.706087 38.110609l-0.066783 0.089043C77.690435 776.904348 0 653.534609 0 512 0 302.992696 169.427478 133.565217 378.434783 133.565217h282.312347L574.107826 46.881391A22.26087 22.26087 0 0 1 605.562435 15.404522L731.492174 141.356522a22.26087 22.26087 0 1 1-21.036522 37.353739z" fill="#9a79d2" p-id="2089"></path></svg>