<?xml version="1.0" standalone="no"?><!DOCTYPE svg PUBLIC "-//W3C//DTD SVG 1.1//EN" "http://www.w3.org/Graphics/SVG/1.1/DTD/svg11.dtd"><svg t="1603954281869" class="icon" viewBox="0 0 1024 1024" version="1.1" xmlns="http://www.w3.org/2000/svg" p-id="5406" xmlns:xlink="http://www.w3.org/1999/xlink" width="200" height="200"><defs><style type="text/css"></style></defs><path d="M814.07241482 318.06198518h103.76533333c27.1853037 0 41.26340741-32.52527408 22.5735111-52.30743703l-87.38133333-92.96402963c-11.77220741-12.50038518-31.43300741-13.1072-43.93339259-1.3349926-12.50038518 11.77220741-13.1072 31.43300741-1.33499258 43.9333926l38.10797036 40.53522963h-31.91845926C703.75348148 255.92414815 632.02797037 317.09108148 485.30014815 494.40237037l-10.67994074 12.86447408c-123.79022222 149.39780741-187.62714075 203.04023703-265.54216296 203.04023703h-103.15851853c-17.11217778 0-31.06891852 13.95674075-31.06891851 31.06891852s13.95674075 31.06891852 31.06891851 31.06891852h103.15851853c104.61487408 0 176.70447408-60.68148148 313.48053333-225.61374815l10.67994074-12.86447407c133.62062222-161.29137778 197.5789037-215.90471111 280.8338963-215.90471112z" fill="#9a79d2" p-id="5407"></path><path d="M917.95911111 707.87982222H814.19377778c-64.5650963 0-127.06702222-40.77795555-205.34613333-126.58157037-10.8013037-11.77220741-29.12711111-12.62174815-41.02068148-1.82044444-11.77220741 10.8013037-12.62174815 29.12711111-1.82044445 41.02068148 88.35223703 96.72628148 162.99045925 145.51419259 248.18725926 145.51419259h37.86524444l-42.84112592 46.72474074c-10.8013037 11.77220741-10.07312592 30.09801482 1.69908148 41.02068148 11.77220741 10.8013037 30.09801482 10.07312592 41.02068147-1.69908148l87.5026963-95.26992592c16.86945185-18.93262222 3.76225185-48.90927408-21.48124444-48.90927408zM106.04088889 313.57155555h103.15851852c62.50192592 0 123.66885925 41.38477037 203.04023704 129.73700742 11.40811852 12.74311111 31.06891852 13.83537778 43.81202963 2.42725925s13.83537778-31.06891852 2.42725925-43.81202963c-90.17268148-100.48853333-163.96136297-150.36871111-249.27952592-150.36871111h-103.15851852c-17.11217778 0-31.06891852 13.95674075-31.06891852 31.06891852 0 17.11217778 13.83537778 30.94755555 31.06891852 30.94755555z" fill="#9a79d2" p-id="5408"></path></svg>