<?xml version="1.0" standalone="no"?><!DOCTYPE svg PUBLIC "-//W3C//DTD SVG 1.1//EN" "http://www.w3.org/Graphics/SVG/1.1/DTD/svg11.dtd"><svg t="1603953281003" class="icon" viewBox="0 0 1068 1024" version="1.1" xmlns="http://www.w3.org/2000/svg" p-id="1164" xmlns:xlink="http://www.w3.org/1999/xlink" width="208.59375" height="200"><defs><style type="text/css"></style></defs><path d="M448.668 881.53l88.153 88.153a22.26 22.26 0 1 1-31.5 31.5l-125.907-125.93a22.26 22.26 0 0 1 20.48-37.487l0.735-0.735h289.458c184.409 0 333.913-149.504 333.913-333.913 0-107.387-50.688-202.952-129.47-264.014l-0.021-0.111a22.239 22.239 0 1 1 27.625-34.772l0.045-0.044c89.043 69.231 146.343 177.397 146.343 298.94 0 209.008-169.428 378.436-378.435 378.436h-241.42z m261.788-711.724a339.1 339.1 0 0 0-20.369-0.601H378.435c-184.41 0-333.913 149.482-333.913 333.913 0 125.262 68.964 234.407 171.008 291.528l0.022 0.112a22.26 22.26 0 1 1-22.706 38.11l-0.067 0.09C77.69 768.044 0 644.63 0 503.095 0 294.066 169.427 124.66 378.435 124.66h282.312l-86.64-86.662a22.26 22.26 0 0 1 31.455-31.477l125.93 125.93a22.26 22.26 0 1 1-21.036 37.354z" p-id="1165" fill="#9a79d2"></path><path d="M597.727 368.863a22.277 22.277 0 0 1 2.159 10.952v288.011a22.26 22.26 0 0 1-44.522 0v-235.52l-72.125 72.125a22.26 22.26 0 1 1-31.477-31.477L560.573 364.1a22.26 22.26 0 0 1 37.154 4.741z" p-id="1166" fill="#9a79d2"></path></svg>